<?xml version="1.0" standalone="no"?>
<!DOCTYPE svg PUBLIC "-//W3C//DTD SVG 20010904//EN"
 "http://www.w3.org/TR/2001/REC-SVG-20010904/DTD/svg10.dtd">
<svg version="1.0" xmlns="http://www.w3.org/2000/svg"
 width="411.000000pt" height="411.000000pt" viewBox="0 0 411.000000 411.000000"
 preserveAspectRatio="xMidYMid meet">
<metadata>
Created by potrace 1.14, written by Peter Selinger 2001-2017
</metadata>
<g transform="translate(0.000000,411.000000) scale(0.100000,-0.100000)"
fill="#000000" stroke="none">
<path d="M1529 3191 l-39 -39 0 -154 0 -155 -66 -6 c-70 -5 -101 -21 -138 -71
-20 -27 -21 -41 -23 -409 l-2 -382 -33 -5 -33 -5 -3 -80 -3 -81 65 -52 65 -52
638 0 638 0 65 53 65 53 3 59 c4 90 -2 105 -43 105 l-35 0 0 373 c0 347 -2
375 -20 415 -23 50 -79 81 -147 82 l-43 0 0 156 0 156 -39 39 -39 39 -397 0
-397 0 -39 -39z m835 -32 l26 -20 0 -240 c0 -138 -4 -248 -10 -259 -16 -30
-66 -40 -198 -40 l-125 0 -111 -62 c-142 -79 -214 -118 -220 -118 -3 0 -7 39
-8 88 l-3 87 -45 3 c-67 4 -87 10 -110 34 -19 21 -20 35 -20 262 0 232 1 240
22 263 l21 23 377 0 c367 0 378 -1 404 -21z m-874 -444 c0 -72 2 -77 34 -112
29 -32 42 -38 87 -43 l54 -5 3 -100 c2 -61 7 -102 14 -106 14 -9 47 8 233 114
l140 81 145 6 c88 4 156 12 173 20 47 23 67 68 67 149 l0 71 51 0 c43 0 55 -5
80 -29 l29 -29 0 -381 0 -381 -240 0 -240 0 0 -30 0 -30 -165 0 -165 0 0 30 0
30 -240 0 -240 0 0 371 c0 253 4 377 11 392 21 42 51 57 112 57 l57 0 0 -75z
m262 -817 l3 -33 194 -3 c206 -3 221 0 221 44 l0 24 255 0 255 0 0 -49 c0 -48
-2 -51 -56 -95 l-56 -46 -613 0 -612 0 -52 41 c-50 40 -51 42 -51 95 l0 54
254 0 255 0 3 -32z"/>
<path d="M1919 3018 c-2 -12 -3 -25 -8 -54 0 -6 -14 -9 -31 -6 -21 3 -30 0
-31 -9 -1 -8 -2 -26 -3 -42 -2 -21 2 -29 20 -33 13 -3 28 -3 33 1 12 7 14 -4
11 -47 -1 -27 1 -28 44 -28 44 0 45 0 48 37 3 35 5 37 38 38 34 0 35 1 35 40
0 39 -1 40 -37 43 -36 3 -38 5 -38 38 0 33 -1 34 -40 34 -25 0 -41 -5 -41 -12z"/>
<path d="M1350 1835 c0 -20 5 -25 24 -25 18 0 23 5 21 18 -2 9 -4 20 -4 25 -1
4 -10 7 -21 7 -15 0 -20 -7 -20 -25z"/>
<path d="M1490 1835 c0 -18 5 -25 20 -25 15 0 20 7 20 25 0 18 -5 25 -20 25
-15 0 -20 -7 -20 -25z"/>
<path d="M1630 1835 c0 -18 5 -25 20 -25 15 0 20 7 20 25 0 18 -5 25 -20 25
-15 0 -20 -7 -20 -25z"/>
<path d="M2240 1835 c0 -20 5 -25 25 -25 20 0 25 5 25 25 0 20 -5 25 -25 25
-20 0 -25 -5 -25 -25z"/>
<path d="M2380 1835 c0 -20 5 -25 25 -25 20 0 25 5 25 25 0 20 -5 25 -25 25
-20 0 -25 -5 -25 -25z"/>
<path d="M2520 1835 c0 -18 5 -25 18 -25 25 0 31 7 25 31 -8 29 -43 25 -43 -6z"/>
<path d="M2445 1563 c2 -37 4 -38 44 -41 l41 -3 0 40 0 41 -43 0 -44 0 2 -37z"/>
<path d="M674 1557 c-2 -7 -3 -100 -2 -207 l3 -194 33 1 c17 1 37 2 42 2 6 1
10 77 10 206 l0 205 -40 0 c-24 0 -43 -5 -46 -13z"/>
<path d="M820 1530 l0 -40 65 0 65 0 0 -168 0 -169 40 1 40 1 0 168 0 167 65
0 65 0 0 40 0 40 -170 0 -170 0 0 -40z"/>
<path d="M1200 1256 l0 -216 40 0 39 0 3 58 3 57 65 3 c53 3 70 8 90 28 23 23
25 31 25 129 0 95 -2 106 -23 127 -20 21 -34 23 -132 26 l-110 4 0 -216z m181
114 c1 -16 3 -45 4 -62 4 -69 -2 -78 -56 -78 l-49 0 0 85 0 85 50 0 c49 0 50
-1 51 -30z"/>
<path d="M1592 1460 c-32 -14 -52 -68 -52 -142 0 -79 14 -129 39 -145 27 -17
187 -19 206 -3 8 7 15 23 15 36 0 23 -2 24 -85 24 -47 0 -85 4 -85 9 0 5 -3
16 -6 25 -5 14 6 16 90 16 l96 0 0 69 c0 100 -15 115 -117 118 -43 2 -88 -2
-101 -7z m136 -92 c3 -27 2 -28 -47 -28 -55 0 -63 6 -54 39 5 19 11 22 52 19
42 -3 46 -5 49 -30z"/>
<path d="M1922 1458 c-30 -15 -33 -33 -30 -177 l3 -123 38 -4 c24 -2 37 1 38
9 0 7 1 62 2 122 l2 110 58 3 c48 3 57 6 57 22 0 30 -39 50 -95 49 -27 0 -60
-5 -73 -11z"/>
<path d="M2165 1445 c-19 -18 -25 -35 -25 -69 0 -62 24 -81 125 -98 12 -2 21
-12 23 -26 3 -21 0 -22 -71 -22 -66 0 -75 -2 -80 -19 -5 -21 17 -48 43 -51 8
-1 43 -2 78 -1 79 1 112 28 112 88 0 59 -21 80 -91 94 -52 10 -60 14 -57 33 3
19 11 21 71 24 60 3 67 5 67 24 0 34 -29 47 -103 48 -59 0 -71 -3 -92 -25z"/>
<path d="M2450 1313 l0 -158 40 0 40 0 0 158 0 157 -40 0 -40 0 0 -157z"/>
<path d="M2647 1452 c-35 -39 -23 -51 56 -54 69 -3 72 -4 72 -28 0 -24 -3 -25
-68 -30 -57 -4 -72 -9 -88 -29 -28 -34 -25 -96 6 -126 22 -23 32 -25 114 -25
49 0 96 -3 105 -6 14 -5 16 9 16 113 0 182 -14 203 -134 203 -48 0 -67 -4 -79
-18z m133 -197 c0 -23 -3 -25 -50 -25 -47 0 -50 2 -50 25 0 23 3 25 50 25 47
0 50 -2 50 -25z"/>
<path d="M2940 1315 c0 -85 3 -156 8 -156 4 -1 21 -3 39 -5 l32 -4 3 123 3
122 50 0 50 0 3 -117 c1 -65 6 -118 10 -119 4 0 22 -2 40 -5 l32 -4 0 136 c0
133 0 135 -26 159 -25 23 -34 25 -135 25 l-109 0 0 -155z"/>
</g>
</svg>
